<?xml version="1.0" standalone="no"?><!DOCTYPE svg PUBLIC "-//W3C//DTD SVG 1.1//EN" "http://www.w3.org/Graphics/SVG/1.1/DTD/svg11.dtd"><svg t="1752654633959" class="icon" viewBox="0 0 1024 1024" version="1.1" xmlns="http://www.w3.org/2000/svg" p-id="13717" xmlns:xlink="http://www.w3.org/1999/xlink" width="64" height="64"><path d="M934.34311111 897.93422222c-7.28177778-21.84533333-21.84533333-21.84533333-43.69066666-29.12711111a1165.08444445 1165.08444445 0 0 0-167.4808889-21.84533333 40.04977778 40.04977778 0 0 1-43.69066666-29.12711111 165.29635555 165.29635555 0 0 1-7.28177778-145.63555556c7.28177778-29.12711111 21.84533333-58.25422222 29.12711111-87.38133333 14.56355555-87.38133333 29.12711111-182.04444445 43.69066667-269.42577778a66.26417778 66.26417778 0 0 0-21.84533334-50.97244445 1119.93742222 1119.93742222 0 0 0-94.6631111-87.38133333 206.80248889 206.80248889 0 0 1-65.536-123.79022222c0-14.56355555 0-43.69066667-21.84533334-50.97244445-7.28177778 0-14.56355555 29.12711111-21.84533333 50.97244445a211.17155555 211.17155555 0 0 1-80.09955556 145.63555555c-29.12711111 21.84533333-50.97244445 50.97244445-80.09955555 72.81777778-14.56355555 14.56355555-14.56355555 29.12711111-21.84533334 50.97244445A551.95875555 551.95875555 0 0 0 359.08266667 439.18222222c14.56355555 58.25422222 21.84533333 116.50844445 36.40888888 174.76266667a347.3408 347.3408 0 0 1 29.12711112 145.63555556c-14.56355555 87.38133333-36.40888889 116.50844445-123.79022222 101.94488888a151.46097778 151.46097778 0 0 0-80.09955556 7.28177778 62.62328889 62.62328889 0 0 0-58.25422222 50.97244444c-7.28177778 21.84533333 7.28177778 43.69066667 36.40888888 58.25422223a134.71288889 134.71288889 0 0 0 50.97244445 14.56355555 1877.97048889 1877.97048889 0 0 0 283.98933333 29.12711112c72.81777778 0 145.63555555-7.28177778 218.45333334-7.28177778a40.04977778 40.04977778 0 0 0 36.40888888-21.84533334c7.28177778-14.56355555 14.56355555-14.56355555 29.12711112-14.56355555a364.08888889 364.08888889 0 0 0 94.66311111-29.12711111c14.56355555-14.56355555 29.12711111-29.12711111 21.84533333-50.97244445z m-291.27111111-451.47022222a26.94257778 26.94257778 0 0 1-7.28177778-21.84533333 131.072 131.072 0 0 0-21.84533333-87.38133334 87.38133333 87.38133333 0 0 0-72.81777778-50.97244444 72.81777778 72.81777778 0 0 0-65.536 58.25422222q-10.92266667 43.69066667-21.84533333 109.22666667c-7.28177778-21.84533333-7.28177778-36.40888889-14.56355556-58.25422223v-14.56355555c-29.12711111-43.69066667-7.28177778-72.81777778 21.84533333-109.22666667a543.22062222 543.22062222 0 0 0 65.536-109.22666666c14.56355555-21.84533333 21.84533333-21.84533333 43.69066667 0a1077.70311111 1077.70311111 0 0 0 58.25422223 94.66311111 129.61564445 129.61564445 0 0 1 29.1271111 131.072c-7.28177778 21.84533333-7.28177778 36.40888889-14.56355555 58.25422222z" p-id="13718"></path></svg>