<?xml version="1.0" standalone="no"?><!DOCTYPE svg PUBLIC "-//W3C//DTD SVG 1.1//EN" "http://www.w3.org/Graphics/SVG/1.1/DTD/svg11.dtd"><svg t="1752654575887" class="icon" viewBox="0 0 1024 1024" version="1.1" xmlns="http://www.w3.org/2000/svg" p-id="13553" xmlns:xlink="http://www.w3.org/1999/xlink" width="64" height="64"><path d="M512 117.333a74.667 74.667 0 1 0 0 149.334 74.667 74.667 0 0 0 0-149.334zM373.333 192a138.667 138.667 0 1 1 277.334 0 138.667 138.667 0 0 1-277.334 0zM512 416.939c-15.19 0-28.97 0.853-36.693 2.133l-38.059 6.443C351.36 439.979 288 515.2 288 603.776a138.667 138.667 0 0 1-61.013 115.03l-4.267 2.943a146.56 146.56 0 0 1-35.115 17.323l-49.365 16.64a32 32 0 1 1-20.48-60.672l49.45-16.64a81.671 81.671 0 0 0 19.713-9.77l4.352-2.902A74.667 74.667 0 0 0 224 603.776c0-119.339 85.461-221.653 202.581-241.365l37.974-6.4A310.272 310.272 0 0 1 512 352.939a309.632 309.632 0 0 1 47.445 3.072l37.974 6.4C714.58 382.123 800 484.437 800 603.776c0 25.003 12.373 48.213 32.768 61.952l4.31 2.901a84.51 84.51 0 0 0 19.754 9.814l49.408 16.64a32 32 0 1 1-20.48 60.586l-49.365-16.64a146.475 146.475 0 0 1-35.072-17.28l-4.31-2.944A138.667 138.667 0 0 1 736 603.776c0-88.576-63.36-163.797-149.205-178.261l-38.059-6.4a251.179 251.179 0 0 0-36.693-2.176zM379.733 663.467a32 32 0 1 1 51.2 38.4l-39.424 52.608-0.938 1.237a193.323 193.323 0 0 1-14.507 17.92 117.333 117.333 0 0 1-42.965 28.587c-6.614 2.474-13.483 4.181-22.187 6.4l-1.493 0.341-76.544 19.157a39.893 39.893 0 0 0 9.685 78.55h29.184a304.753 304.753 0 0 0 182.912-60.971l80.81-60.63a32 32 0 1 1 38.4 51.2l-38.57 28.929 20.95 7.893c22.783 8.533 33.066 12.373 43.391 15.616a394.752 394.752 0 0 0 95.702 17.365c10.794 0.598 21.76 0.598 46.08 0.598h40.064a39.893 39.893 0 0 0 9.642-78.55l-62.848-15.744a4096.853 4096.853 0 0 0-3.498-0.853c-20.31-5.077-36.31-9.045-50.603-17.323a116.48 116.48 0 0 1-12.373-8.192c-13.142-9.984-23.04-23.168-35.542-39.936l-2.176-2.858-31.018-41.344a32 32 0 1 1 51.2-38.4l31.018 41.344c15.702 20.949 20.096 26.368 25.216 30.25a64.191 64.191 0 0 0 5.632 3.712c5.547 3.2 12.246 5.163 37.675 11.52l62.848 15.702a103.893 103.893 0 0 1-25.173 204.672h-41.088c-22.998 0-35.84 0-48.64-0.726a458.795 458.795 0 0 1-111.232-20.181c-12.203-3.84-24.192-8.32-45.739-16.384l-61.099-22.912a368.853 368.853 0 0 1-201.941 60.203H242.56a103.893 103.893 0 0 1-25.173-204.672l76.501-19.115c10.88-2.73 13.824-3.499 16.384-4.48a53.358 53.358 0 0 0 19.541-12.97c1.878-2.006 3.755-4.353 10.496-13.355l39.424-52.608z" p-id="13554"></path></svg>